<?xml version="1.0" encoding="UTF-8" standalone="no"?> <!-- Created with Vectornator for iOS (http://vectornator.io/) --><!DOCTYPE svg PUBLIC "-//W3C//DTD SVG 1.1//EN" "http://www.w3.org/Graphics/SVG/1.1/DTD/svg11.dtd">
<svg style="fill-rule:evenodd;clip-rule:evenodd;stroke-linecap:round;stroke-linejoin:round;" xmlns:vectornator="http://vectornator.io" xmlns:xlink="http://www.w3.org/1999/xlink" xmlns="http://www.w3.org/2000/svg" xml:space="preserve" version="1.1" viewBox="0 0 165.521 105.965">
<metadata>
<vectornator:setting key="DynamicGuides" value="1"/>
<vectornator:setting key="Units" value="Pixels"/>
<vectornator:setting key="GridSpacing" value="36"/>
<vectornator:setting key="SnapToGuides" value="1"/>
<vectornator:setting key="RulersVisible" value="1"/>
</metadata>
<defs/>
<g id="Untitled" vectornator:layerName="Untitled">
<g opacity="1">
<path d="M150.698+4.84288e-06L14.8232+4.84288e-06C14.2573+4.84288e-06+13.6904+4.84288e-06+13.1255+0.00330484C12.648+0.00670484+12.1716+0.0120048+11.6952+0.0250048C10.6562+0.0531048+9.60828+0.114405+8.58228+0.298805C7.53988+0.486405+6.56988+0.792405+5.62358+1.2742C4.69328+1.7473+3.84158+2.3661+3.10349+3.1045C2.36508+3.8429+1.74628+4.6932+1.27328+5.6245C0.791376+6.5708+0.485176+7.5411+0.298876+8.5843C0.113486+9.6106+0.051776+10.6583+0.023776+11.6962C0.010976+12.1726+0.005486+12.649+0.002376+13.1253C-0.000924+13.6914+0.000176+14.2571+0.000176+14.8242L0.000176+91.142C0.000176+91.7091-0.000924+92.2738+0.002376+92.841C0.005486+93.3173+0.010976+93.7937+0.023776+94.2701C0.051776+95.3071+0.113486+96.3548+0.298876+97.3808C0.485176+98.4244+0.791376+99.3943+1.27328+100.341C1.74628+101.272+2.36508+102.123+3.10349+102.861C3.84158+103.6+4.69328+104.219+5.62358+104.691C6.56988+105.174+7.53988+105.48+8.58228+105.668C9.60828+105.851+10.6562+105.913+11.6952+105.941C12.1716+105.952+12.648+105.959+13.1255+105.961C13.6904+105.965+14.2573+105.965+14.8232+105.965L150.698+105.965C151.263+105.965+151.83+105.965+152.395+105.961C152.871+105.959+153.347+105.952+153.826+105.941C154.863+105.913+155.911+105.851+156.939+105.668C157.98+105.48+158.95+105.174+159.897+104.691C160.828+104.219+161.677+103.6+162.417+102.861C163.154+102.123+163.773+101.272+164.247+100.341C164.73+99.3943+165.036+98.4244+165.221+97.3808C165.407+96.3548+165.467+95.3071+165.495+94.2701C165.508+93.7937+165.514+93.3173+165.517+92.841C165.521+92.2738+165.521+91.7091+165.521+91.142L165.521+14.8242C165.521+14.2571+165.521+13.6914+165.517+13.1253C165.514+12.649+165.508+12.1726+165.495+11.6962C165.467+10.6583+165.407+9.6106+165.221+8.5843C165.036+7.5411+164.73+6.5708+164.247+5.6245C163.773+4.6932+163.154+3.8429+162.417+3.1045C161.677+2.3661+160.828+1.7473+159.897+1.2742C158.95+0.792404+157.98+0.486404+156.939+0.298804C155.911+0.114404+154.863+0.0531045+153.826+0.0250045C153.347+0.0120045+152.871+0.00670449+152.395+0.00330449C151.83+4.84288e-06+151.263+4.84288e-06+150.698+4.84288e-06L150.698+4.84288e-06Z" opacity="1" fill="#000000"/>
<path d="M150.698+3.532L152.37+3.5352C152.822+3.5384+153.275+3.5433+153.73+3.5557C154.522+3.5771+155.449+3.62+156.313+3.7748C157.063+3.91+157.693+4.1156+158.297+4.4232C158.894+4.7263+159.44+5.1235+159.917+5.6C160.396+6.0797+160.794+6.6271+161.101+7.2302C161.407+7.8297+161.611+8.4563+161.746+9.2125C161.9+10.0667+161.943+10.9957+161.964+11.7926C161.977+12.2424+161.983+12.6922+161.985+13.1527C161.989+13.7096+161.989+14.2662+161.989+14.8242L161.989+91.142C161.989+91.7+161.989+92.2556+161.985+92.8244C161.983+93.2741+161.977+93.7239+161.964+94.1745C161.943+94.9702+161.9+95.8987+161.744+96.763C161.611+97.5088+161.407+98.1355+161.099+98.738C160.793+99.3396+160.396+99.8864+159.919+100.363C159.439+100.843+158.895+101.239+158.291+101.545C157.691+101.851+157.063+102.057+156.32+102.19C155.438+102.347+154.473+102.391+153.746+102.41C153.289+102.421+152.834+102.427+152.367+102.429C151.812+102.433+151.254+102.433+150.698+102.433L14.8232+102.433C14.8158+102.433+14.8086+102.433+14.8011+102.433C14.2517+102.433+13.7012+102.433+13.1418+102.429C12.6857+102.427+12.2306+102.421+11.7906+102.411C11.047+102.391+10.0811+102.347+9.20718+102.191C8.45749+102.057+7.82898+101.851+7.22138+101.541C6.62349+101.238+6.07918+100.842+5.59908+100.361C5.12268+99.8857+4.72678+99.3406+4.42068+98.7381C4.11428+98.1362+3.90928+97.5076+3.77449+96.7529C3.61868+95.8903+3.57588+94.9655+3.55449+94.1752C3.54228+93.7227+3.53718+93.2703+3.53428+92.8205L3.53208+91.4926L3.53218+91.142L3.53218+14.8242L3.53208+14.4736L3.53418+13.1485C3.53718+12.696+3.54228+12.2436+3.55449+11.7915C3.57588+11.0004+3.61868+10.0752+3.77578+9.2054C3.90938+8.4575+4.11428+7.8289+4.42228+7.224C4.72598+6.6261+5.12258+6.0803+5.60149+5.6015C6.07849+5.1243+6.62458+4.7276+7.22628+4.4216C7.82738+4.1155+8.45708+3.91+9.20678+3.7751C10.0706+3.6199+10.9977+3.5771+11.7917+3.5556C12.2443+3.5433+12.6969+3.5384+13.1461+3.5353L14.8232+3.532L150.698+3.532" opacity="1" fill="#FAEBD7"/>
<g opacity="1">
<g opacity="1">
<path d="M45.1862+35.6405C46.6034+33.8679+47.5652+31.4877+47.3115+29.0555C45.2369+29.1586+42.7052+30.4242+41.2394+32.1982C39.9234+33.7174+38.7585+36.1973+39.0622+38.5275C41.3911+38.7295+43.7178+37.3635+45.1862+35.6405" opacity="1" fill="#000000"/>
<path d="M47.2851+38.9825C43.9029+38.7811+41.0273+40.902+39.4122+40.902C37.7962+40.902+35.3229+39.084+32.6478+39.133C29.166+39.1842+25.9354+41.1528+24.1685+44.2838C20.5344+50.5474+23.2095+59.8385+26.7435+64.9399C28.4596+67.4637+30.5279+70.2426+33.2532+70.1428C35.8282+70.0417+36.8374+68.4754+39.9674+68.4754C43.095+68.4754+44.0042+70.1428+46.7299+70.0923C49.5565+70.0417+51.3237+67.5672+53.0399+65.0409C55.0086+62.1639+55.8146+59.386+55.8653+59.2335C55.8146+59.1829+50.4147+57.1114+50.3646+50.8999C50.3137+45.6989+54.6041+43.225+54.8061+43.0716C52.3832+39.4881+48.5975+39.084+47.2851+38.9825" opacity="1" fill="#000000"/>
</g>
<g opacity="1">
<path d="M76.7338+31.9438C84.0848+31.9438+89.2035+37.0109+89.2035+44.3882C89.2035+51.7918+83.9795+56.8852+76.5495+56.8852L68.4106+56.8852L68.4106+69.8284L62.5302+69.8284L62.5302+31.9438C62.5302+31.9438+76.7338+31.9438+76.7338+31.9438ZM68.4106+51.9493L75.1579+51.9493C80.2777+51.9493+83.1915+49.1929+83.1915+44.4145C83.1915+39.6366+80.2777+36.9061+75.1842+36.9061L68.4106+36.9061L68.4106+51.9493Z" opacity="1" fill="#000000"/>
<path d="M90.74+61.9786C90.74+57.1475+94.4418+54.181+101.006+53.8134L108.566+53.3672L108.566+51.2409C108.566+48.169+106.492+46.3313+103.027+46.3313C99.7448+46.3313+97.6969+47.9062+97.1986+50.3744L91.8429+50.3744C92.1579+45.3858+96.4107+41.7103+103.237+41.7103C109.932+41.7103+114.211+45.2546+114.211+50.7942L114.211+69.8284L108.776+69.8284L108.776+65.2865L108.645+65.2865C107.044+68.3583+103.552+70.3009+99.9292+70.3009C94.5208+70.3009+90.74+66.9404+90.74+61.9786ZM108.566+59.4846L108.566+57.3056L101.766+57.7254C98.3796+57.9619+96.4633+59.4583+96.4633+61.8212C96.4633+64.2362+98.4586+65.8116+101.504+65.8116C105.468+65.8116+108.566+63.0811+108.566+59.4846Z" opacity="1" fill="#000000"/>
<path d="M119.342+79.9889L119.342+75.3943C119.761+75.4991+120.706+75.4991+121.179+75.4991C123.804+75.4991+125.222+74.3967+126.088+71.5613C126.088+71.5087+126.587+69.8811+126.587+69.8548L116.611+42.2091L122.754+42.2091L129.738+64.6828L129.842+64.6828L136.827+42.2091L142.812+42.2091L132.468+71.2722C130.106+77.9673+127.375+80.1201+121.652+80.1201C121.179+80.1201+119.761+80.0674+119.342+79.9889Z" opacity="1" fill="#000000"/>
</g>
</g>
</g>
</g>
</svg>
