<?xml version="1.0" encoding="UTF-8" standalone="no"?> <!-- Created with Vectornator for iOS (http://vectornator.io/) --><!DOCTYPE svg PUBLIC "-//W3C//DTD SVG 1.1//EN" "http://www.w3.org/Graphics/SVG/1.1/DTD/svg11.dtd">
<svg height="100%" style="fill-rule:evenodd;clip-rule:evenodd;stroke-linecap:round;stroke-linejoin:round;" xmlns:xlink="http://www.w3.org/1999/xlink" xmlns="http://www.w3.org/2000/svg" xml:space="preserve" width="100%" xmlns:vectornator="http://vectornator.io" version="1.1" viewBox="0 0 1200.62 1421.37">
<metadata>
<vectornator:setting key="DynamicGuides" value="1"/>
<vectornator:setting key="Units" value="Points"/>
<vectornator:setting key="GridSpacing" value="36"/>
<vectornator:setting key="SnapToGuides" value="1"/>
<vectornator:setting key="RulersVisible" value="1"/>
</metadata>
<defs/>
<g id="Layer 2" vectornator:layerName="Layer 2">
<path d="M0+0L1199.79+0L1199.79+0L1199.79+1421.32L1199.79+1421.32L0+1421.32L0+1421.32L0+0L0+0Z" opacity="1" fill="#f8ead8"/>
</g>
<g id="Untitled" vectornator:layerName="Untitled">
<g opacity="1">
<g opacity="0.5">
<path d="M0+1421.37L0+232.89C2.5+232.97+5+233.11+7.51+233.11L683.51+233.11L1200.39+233.11C1200.46+234.78+1200.59+236.44+1200.59+238.11C1200.59+630.57+1200.59+1023.03+1200.59+1415.48C1200.59+1417.26+1201.07+1419.14+1199.86+1421.27L378.44+1421.27C252.3+1421.3+126.153+1421.34+0+1421.37ZM1086.72+1172.89C1085.61+1173.25+1084.49+1173.58+1083.39+1173.97C1040.03+1189.34+994.728+1198.52+948.81+1201.26C885.421+1205.31+821.842+1197.2+761.5+1177.36C756.2+1175.62+750.75+1174.18+745.38+1171.36C837.72+1092.36+896.55+994.22+917.81+873.11C1010.39+952.11+1069.11+1049.11+1090.72+1168.11C1091.62+1166.62+1092.13+1164.92+1092.2+1163.17C1094.07+1149.93+1095.6+1136.66+1096.53+1123.31C1099.59+1082.23+1097.35+1040.93+1089.87+1000.43C1079.01+942.62+1059.72+887.98+1028.34+837.74C1007.52+804.41+984.28+773.16+957.01+744.86C945.74+733.17+933.43+722.71+921.01+712.38C918.93+710.66+917.2+708.92+916.66+705.97C903.27+633.41+876.66+566.5+832.59+506.81C804.05+468.12+771.94+433.16+733.44+404C695.5+375.25+654.89+351.61+610.44+334.48C608.68+333.81+606.92+332.48+604.77+333.59C695.71+411.2+752.49+508.47+774.5+626.85C658.05+586+542.5+585.95+425.56+627.13C449.95+509+504.19+409.85+596.62+332.62C575.84+339.45+556.46+348.8+537.34+358.56C501.73+376.75+469.79+400.48+439.67+426.56C400.26+460.64+368.79+501.56+342.21+546.05C312.82+595.21+294.04+648.62+284+705.05C283.606+707.855+282.127+710.394+279.88+712.12C266.79+722.5+254.66+734.04+242.88+745.79C201.48+787+169.67+835.2+145.51+888C107.11+971.93+95.3+1060.29+106.64+1151.79C107.26+1156.79+107.4+1162.1+109.64+1167.95C135.27+1020.57+227.49+916.37+282.84+874.35C304.15+994.59+363.35+1092.73+455.73+1172C341.55+1212.15+227.273+1212.6+112.9+1173.35C125.312+1183.82+138.389+1193.47+152.05+1202.25C182.71+1221.75+214.47+1238.86+248.56+1251.68C290.588+1267.65+334.559+1277.95+379.31+1282.3C413.634+1285.64+448.213+1285.36+482.48+1281.49C521.76+1276.99+560.17+1268.49+597.31+1254.76C599.151+1254.01+601.209+1254.01+603.05+1254.76C616.37+1259.63+629.9+1263.76+643.63+1267.41C671.872+1274.99+700.716+1280.11+729.84+1282.73C815.333+1290.2+901.311+1275.58+979.53+1240.27C997.19+1232.27+1014.07+1222.79+1030.94+1213.27C1050.95+1201.86+1069.87+1188.64+1087.45+1173.76L1088.36+1172.94C1087.8+1172.3+1087.26+1172.56+1086.72+1172.89Z" opacity="0.5" fill="#222221"/>
<path d="M600.44+1089.74C505.19+1011.61+449.56+911.06+425.16+791.4C542.16+749.9+658.1+749.92+775.07+791.17C752.6+912+694.62+1011.09+600.44+1089.74Z" opacity="0.5" fill="#222221"/>
<path d="M1200.34+233.16L683.46+233.16L7.51+233.16C5.01+233.16+2.51+233.02-2.86847e-07+232.94L-2.86847e-07+1L1200.55+1L1200.55+5.9C1200.55+80.32+1200.55+154.74+1200.55+229.16C1200.54+230.49+1200.41+231.83+1200.34+233.16ZM45.01+42.44L45.01+191.44C65.73+190.94+86.18+192.94+106.42+190.44C133.42+187.09+149.88+162.79+143.59+137.15C140.47+124.44+131.73+116.62+120.5+111.01C121.44+109.11+123.39+108.69+124.87+107.68C131.58+103.08+136.46+97.16+138.56+89.18C143.95+68.75+131.19+48.33+109.45+44.31C88.29+40.39+66.79+43.55+45.01+42.44ZM480.38+43.08L480.38+191.38C497.78+191.18+514.81+192.01+531.83+190.96C556.93+189.42+573.2+175.72+582.39+153.02C590.47+133.02+591.59+112.42+586.48+91.54C578.95+60.89+559.23+44.3+527.95+42.92C512.95+42.26+497.85+42.69+482.79+42.66C481.976+42.733+481.17+42.8735+480.38+43.08ZM444.67+191.38C438.41+180.3+436.02+168.89+432.18+158C427.34+144.3+424.47+129.66+413.18+118.91C423.02+114.38+431.32+108.72+435.26+98.44C443.027+78.0802+433.159+55.2388+413.01+46.94C407.773+44.7245+402.196+43.4224+396.52+43.09C378.31+42.16+360.08+42.76+341.86+42.73C341.384+42.8059+340.924+42.9614+340.5+43.19L340.5+191.11L374.79+191.11L374.79+129C384.03+128.26+388.14+130.46+391.79+138.1C393.248+141.101+394.472+144.21+395.45+147.4C399.55+160.79+403.51+174.22+407.51+187.64C408.08+189.55+408.26+191.48+411.15+191.45C422.04+191.3+432.89+191.38+444.67+191.38ZM299.26+115.18C299.386+106.179+298.3+97.2013+296.03+88.49C291.48+70.86+282.95+55.9+266.21+47.12C236.8+31.65+202.32+44.27+188.97+76.12C177.47+103.56+178.12+131.71+189.52+159.02C198.64+180.86+215.72+193.17+239.74+193.24C264.26+193.31+281.43+180.96+291.51+158.78C297.5+145.65+299.26+131.62+299.26+115.18ZM965.85+42.94L965.85+48.16C965.85+64.8933+965.85+81.62+965.85+98.34C965.85+114.4+965.94+130.46+965.69+146.51C965.57+153.86+963.32+160.51+955.84+163.71C944.57+168.57+928.34+162.19+928.37+147.13C928.37+144.96+928.25+142.79+928.25+140.61C928.25+109.997+928.25+79.3867+928.25+48.78C928.25+46.86+928.89+44.78+927.6+43.07L894.49+43.07C894.49+74.44+894.49+105.38+894.49+136.32C894.458+141.837+894.762+147.35+895.4+152.83C897.79+172.61+909.79+186.75+928.94+191.32C940.852+194.28+953.308+194.28+965.22+191.32C981.83+187.1+992.6+176.73+997.16+160.05C998.981+153.093+999.856+145.921+999.76+138.73C999.76+108.29+999.76+77.8467+999.76+47.4C999.76+45.96+1000.22+44.4+999.1+42.93L965.85+42.94ZM1035+191.39C1046.58+191.39+1057.11+191.26+1067.62+191.46C1070.76+191.52+1072.36+190.46+1073.77+187.68C1080.65+174.33+1087.77+161.07+1094.77+147.82C1095.55+146.35+1095.88+144.42+1097.85+143.59C1105.7+158.4+1113.42+173.01+1121.18+187.59C1122+189.13+1122.31+191.33+1124.69+191.34C1136.48+191.34+1148.27+191.34+1160.76+191.34C1159.53+189+1158.76+187.41+1157.87+185.83C1145.36+162.5+1132.13+139.57+1118.64+116.83C1116.77+113.67+1116.79+111.31+1118.73+108.26C1123.42+100.85+1127.58+93.12+1132.24+85.67C1140.24+72.8+1147.24+59.26+1154.65+46C1155.17+45.05+1156.27+44.18+1155.2+42.65C1144.81+42.65+1134.28+42.83+1123.76+42.56C1120.06+42.46+1118.1+43.65+1116.44+46.95C1110.44+58.95+1104.08+70.82+1097.53+83.36C1096.28+81.16+1095.34+79.62+1094.53+78.03C1089+67.36+1083.53+56.67+1077.96+46.03C1077.24+44.64+1076.88+42.7+1074.68+42.7L1040.23+42.7C1040.02+45.27+1041.45+46.63+1042.3+48.15C1053.52+68.27+1064.73+88.4+1076.17+108.4C1077.99+111.59+1077.86+113.87+1076.11+116.99C1063.46+139.57+1051.01+162.25+1038.51+184.91C1037.48+186.72+1036.49+188.61+1035+191.39ZM630.95+43L630.95+191.08L720.15+191.08L720.15+165.54L665.89+165.54L665.89+128.46L714.43+128.46L714.43+103.08L665.95+103.08L665.95+68L718.26+68L718.26+43L630.95+43ZM822.48+41.91C812.77+41.91+802.93+42.16+793.11+41.8C788.74+41.63+787.17+43.15+786.11+47.25C776.6+84.43+766.85+121.54+757.2+158.68C754.4+169.44+751.66+180.22+748.79+191.43C758.59+191.43+767.79+191.31+776.95+191.5C780.21+191.57+781.57+190.63+782.26+187.26C784.08+178.34+786.42+169.53+788.51+160.85L822.13+160.85C824.22+170.03+826.25+178.97+828.28+187.92C828.69+189.73+828.94+191.49+831.57+191.46C841.72+191.37+851.87+191.46+862.48+191.46C850.13+141+836.38+91.7+822.44+41.86L822.48+41.91Z" opacity="0.5" fill="#222221"/>
<path d="M79.73+126.92C85.42+126.69+90.88+126.35+96.34+127.19C103.34+128.26+107.74+132.38+109.8+139.03C111.423+144.165+111.517+149.662+110.07+154.85C108.26+161.48+103.65+165.29+97.07+166.51C91.48+167.51+85.8+167.37+79.77+167.09L79.73+126.92Z" opacity="0.5" fill="#222221"/>
<path d="M79.75+102.58C79.5744+101.837+79.454+101.081+79.39+100.32C79.39+89.47+79.39+78.62+79.39+67.19C88.07+67.1+96.8+65.45+103.03+73.38C107.08+78.52+107.26+89.59+103.43+95.38C97.56+104.16+88.47+102.43+79.75+102.58Z" opacity="0.5" fill="#222221"/>
<path d="M514.15+166.33L514.15+68.28C531.07+65.35+546.51+71.05+551.41+89.02C556.474+107.143+556.605+126.289+551.79+144.48C548.2+158.11+539.44+164.88+525.16+166.28C521.71+166.62+518.19+166.33+514.15+166.33Z" opacity="0.5" fill="#222221"/>
<path d="M375+102.76L375+68.51C380.67+68.28+386.09+67.82+391.5+68.97C399.81+70.73+403.5+75.26+403.71+84.06C403.97+93.84+400.06+100.18+392.15+102.13C386.65+103.49+381+103.43+375+102.76Z" opacity="0.5" fill="#222221"/>
<path d="M215.59+117C215.59+106.77+215.92+96.57+219.1+86.75C223.36+73.57+231.43+68.56+244.98+70.38C251.76+71.3+256.08+75.38+259.06+81.2C262.84+88.48+263.8+96.43+264.4+104.46C265.4+118.37+265.32+132.24+261.86+145.83C258.23+160.11+249.54+165.89+235.77+163.83C227.33+162.57+222.67+157.06+219.84+149.6C215.84+139+215.64+128+215.59+117Z" opacity="0.5" fill="#222221"/>
<path d="M805.79+83.36L817+136.05L793.3+136.05L804.71+83.39L805.79+83.36Z" opacity="0.5" fill="#222221"/>
</g>
<g opacity="1">
<path d="M0+1421.37L0+232.89C2.5+232.97+5+233.11+7.51+233.11L683.51+233.11L1200.39+233.11C1200.46+234.78+1200.59+236.44+1200.59+238.11C1200.59+630.57+1200.59+1023.03+1200.59+1415.48C1200.59+1417.26+1201.07+1419.14+1199.86+1421.27L378.44+1421.27C252.3+1421.3+126.153+1421.34+0+1421.37ZM1086.72+1172.89C1085.61+1173.25+1084.49+1173.58+1083.39+1173.97C1040.03+1189.34+994.728+1198.52+948.81+1201.26C885.421+1205.31+821.842+1197.2+761.5+1177.36C756.2+1175.62+750.75+1174.18+745.38+1171.36C837.72+1092.36+896.55+994.22+917.81+873.11C1010.39+952.11+1069.11+1049.11+1090.72+1168.11C1091.62+1166.62+1092.13+1164.92+1092.2+1163.17C1094.07+1149.93+1095.6+1136.66+1096.53+1123.31C1099.59+1082.23+1097.35+1040.93+1089.87+1000.43C1079.01+942.62+1059.72+887.98+1028.34+837.74C1007.52+804.41+984.28+773.16+957.01+744.86C945.74+733.17+933.43+722.71+921.01+712.38C918.93+710.66+917.2+708.92+916.66+705.97C903.27+633.41+876.66+566.5+832.59+506.81C804.05+468.12+771.94+433.16+733.44+404C695.5+375.25+654.89+351.61+610.44+334.48C608.68+333.81+606.92+332.48+604.77+333.59C695.71+411.2+752.49+508.47+774.5+626.85C658.05+586+542.5+585.95+425.56+627.13C449.95+509+504.19+409.85+596.62+332.62C575.84+339.45+556.46+348.8+537.34+358.56C501.73+376.75+469.79+400.48+439.67+426.56C400.26+460.64+368.79+501.56+342.21+546.05C312.82+595.21+294.04+648.62+284+705.05C283.606+707.855+282.127+710.394+279.88+712.12C266.79+722.5+254.66+734.04+242.88+745.79C201.48+787+169.67+835.2+145.51+888C107.11+971.93+95.3+1060.29+106.64+1151.79C107.26+1156.79+107.4+1162.1+109.64+1167.95C135.27+1020.57+227.49+916.37+282.84+874.35C304.15+994.59+363.35+1092.73+455.73+1172C341.55+1212.15+227.273+1212.6+112.9+1173.35C125.312+1183.82+138.389+1193.47+152.05+1202.25C182.71+1221.75+214.47+1238.86+248.56+1251.68C290.588+1267.65+334.559+1277.95+379.31+1282.3C413.634+1285.64+448.213+1285.36+482.48+1281.49C521.76+1276.99+560.17+1268.49+597.31+1254.76C599.151+1254.01+601.209+1254.01+603.05+1254.76C616.37+1259.63+629.9+1263.76+643.63+1267.41C671.872+1274.99+700.716+1280.11+729.84+1282.73C815.333+1290.2+901.311+1275.58+979.53+1240.27C997.19+1232.27+1014.07+1222.79+1030.94+1213.27C1050.95+1201.86+1069.87+1188.64+1087.45+1173.76L1088.36+1172.94C1087.8+1172.3+1087.26+1172.56+1086.72+1172.89Z" opacity="1" fill="#222221"/>
<path d="M600.44+1089.74C505.19+1011.61+449.56+911.06+425.16+791.4C542.16+749.9+658.1+749.92+775.07+791.17C752.6+912+694.62+1011.09+600.44+1089.74Z" opacity="1" fill="#222221"/>
<path d="M1200.34+233.16L683.46+233.16L7.51+233.16C5.01+233.16+2.51+233.02-2.86847e-07+232.94L-2.86847e-07+1L1200.55+1L1200.55+5.9C1200.55+80.32+1200.55+154.74+1200.55+229.16C1200.54+230.49+1200.41+231.83+1200.34+233.16ZM45.01+42.44L45.01+191.44C65.73+190.94+86.18+192.94+106.42+190.44C133.42+187.09+149.88+162.79+143.59+137.15C140.47+124.44+131.73+116.62+120.5+111.01C121.44+109.11+123.39+108.69+124.87+107.68C131.58+103.08+136.46+97.16+138.56+89.18C143.95+68.75+131.19+48.33+109.45+44.31C88.29+40.39+66.79+43.55+45.01+42.44ZM480.38+43.08L480.38+191.38C497.78+191.18+514.81+192.01+531.83+190.96C556.93+189.42+573.2+175.72+582.39+153.02C590.47+133.02+591.59+112.42+586.48+91.54C578.95+60.89+559.23+44.3+527.95+42.92C512.95+42.26+497.85+42.69+482.79+42.66C481.976+42.733+481.17+42.8735+480.38+43.08ZM444.67+191.38C438.41+180.3+436.02+168.89+432.18+158C427.34+144.3+424.47+129.66+413.18+118.91C423.02+114.38+431.32+108.72+435.26+98.44C443.027+78.0802+433.159+55.2388+413.01+46.94C407.773+44.7245+402.196+43.4224+396.52+43.09C378.31+42.16+360.08+42.76+341.86+42.73C341.384+42.8059+340.924+42.9614+340.5+43.19L340.5+191.11L374.79+191.11L374.79+129C384.03+128.26+388.14+130.46+391.79+138.1C393.248+141.101+394.472+144.21+395.45+147.4C399.55+160.79+403.51+174.22+407.51+187.64C408.08+189.55+408.26+191.48+411.15+191.45C422.04+191.3+432.89+191.38+444.67+191.38ZM299.26+115.18C299.386+106.179+298.3+97.2013+296.03+88.49C291.48+70.86+282.95+55.9+266.21+47.12C236.8+31.65+202.32+44.27+188.97+76.12C177.47+103.56+178.12+131.71+189.52+159.02C198.64+180.86+215.72+193.17+239.74+193.24C264.26+193.31+281.43+180.96+291.51+158.78C297.5+145.65+299.26+131.62+299.26+115.18ZM965.85+42.94L965.85+48.16C965.85+64.8933+965.85+81.62+965.85+98.34C965.85+114.4+965.94+130.46+965.69+146.51C965.57+153.86+963.32+160.51+955.84+163.71C944.57+168.57+928.34+162.19+928.37+147.13C928.37+144.96+928.25+142.79+928.25+140.61C928.25+109.997+928.25+79.3867+928.25+48.78C928.25+46.86+928.89+44.78+927.6+43.07L894.49+43.07C894.49+74.44+894.49+105.38+894.49+136.32C894.458+141.837+894.762+147.35+895.4+152.83C897.79+172.61+909.79+186.75+928.94+191.32C940.852+194.28+953.308+194.28+965.22+191.32C981.83+187.1+992.6+176.73+997.16+160.05C998.981+153.093+999.856+145.921+999.76+138.73C999.76+108.29+999.76+77.8467+999.76+47.4C999.76+45.96+1000.22+44.4+999.1+42.93L965.85+42.94ZM1035+191.39C1046.58+191.39+1057.11+191.26+1067.62+191.46C1070.76+191.52+1072.36+190.46+1073.77+187.68C1080.65+174.33+1087.77+161.07+1094.77+147.82C1095.55+146.35+1095.88+144.42+1097.85+143.59C1105.7+158.4+1113.42+173.01+1121.18+187.59C1122+189.13+1122.31+191.33+1124.69+191.34C1136.48+191.34+1148.27+191.34+1160.76+191.34C1159.53+189+1158.76+187.41+1157.87+185.83C1145.36+162.5+1132.13+139.57+1118.64+116.83C1116.77+113.67+1116.79+111.31+1118.73+108.26C1123.42+100.85+1127.58+93.12+1132.24+85.67C1140.24+72.8+1147.24+59.26+1154.65+46C1155.17+45.05+1156.27+44.18+1155.2+42.65C1144.81+42.65+1134.28+42.83+1123.76+42.56C1120.06+42.46+1118.1+43.65+1116.44+46.95C1110.44+58.95+1104.08+70.82+1097.53+83.36C1096.28+81.16+1095.34+79.62+1094.53+78.03C1089+67.36+1083.53+56.67+1077.96+46.03C1077.24+44.64+1076.88+42.7+1074.68+42.7L1040.23+42.7C1040.02+45.27+1041.45+46.63+1042.3+48.15C1053.52+68.27+1064.73+88.4+1076.17+108.4C1077.99+111.59+1077.86+113.87+1076.11+116.99C1063.46+139.57+1051.01+162.25+1038.51+184.91C1037.48+186.72+1036.49+188.61+1035+191.39ZM630.95+43L630.95+191.08L720.15+191.08L720.15+165.54L665.89+165.54L665.89+128.46L714.43+128.46L714.43+103.08L665.95+103.08L665.95+68L718.26+68L718.26+43L630.95+43ZM822.48+41.91C812.77+41.91+802.93+42.16+793.11+41.8C788.74+41.63+787.17+43.15+786.11+47.25C776.6+84.43+766.85+121.54+757.2+158.68C754.4+169.44+751.66+180.22+748.79+191.43C758.59+191.43+767.79+191.31+776.95+191.5C780.21+191.57+781.57+190.63+782.26+187.26C784.08+178.34+786.42+169.53+788.51+160.85L822.13+160.85C824.22+170.03+826.25+178.97+828.28+187.92C828.69+189.73+828.94+191.49+831.57+191.46C841.72+191.37+851.87+191.46+862.48+191.46C850.13+141+836.38+91.7+822.44+41.86L822.48+41.91Z" opacity="1" fill="#222221"/>
<path d="M79.73+126.92C85.42+126.69+90.88+126.35+96.34+127.19C103.34+128.26+107.74+132.38+109.8+139.03C111.423+144.165+111.517+149.662+110.07+154.85C108.26+161.48+103.65+165.29+97.07+166.51C91.48+167.51+85.8+167.37+79.77+167.09L79.73+126.92Z" opacity="1" fill="#222221"/>
<path d="M79.75+102.58C79.5744+101.837+79.454+101.081+79.39+100.32C79.39+89.47+79.39+78.62+79.39+67.19C88.07+67.1+96.8+65.45+103.03+73.38C107.08+78.52+107.26+89.59+103.43+95.38C97.56+104.16+88.47+102.43+79.75+102.58Z" opacity="1" fill="#222221"/>
<path d="M514.15+166.33L514.15+68.28C531.07+65.35+546.51+71.05+551.41+89.02C556.474+107.143+556.605+126.289+551.79+144.48C548.2+158.11+539.44+164.88+525.16+166.28C521.71+166.62+518.19+166.33+514.15+166.33Z" opacity="1" fill="#222221"/>
<path d="M375+102.76L375+68.51C380.67+68.28+386.09+67.82+391.5+68.97C399.81+70.73+403.5+75.26+403.71+84.06C403.97+93.84+400.06+100.18+392.15+102.13C386.65+103.49+381+103.43+375+102.76Z" opacity="1" fill="#222221"/>
<path d="M215.59+117C215.59+106.77+215.92+96.57+219.1+86.75C223.36+73.57+231.43+68.56+244.98+70.38C251.76+71.3+256.08+75.38+259.06+81.2C262.84+88.48+263.8+96.43+264.4+104.46C265.4+118.37+265.32+132.24+261.86+145.83C258.23+160.11+249.54+165.89+235.77+163.83C227.33+162.57+222.67+157.06+219.84+149.6C215.84+139+215.64+128+215.59+117Z" opacity="1" fill="#222221"/>
<path d="M805.79+83.36L817+136.05L793.3+136.05L804.71+83.39L805.79+83.36Z" opacity="1" fill="#222221"/>
</g>
</g>
</g>
</svg>
