<?xml version="1.0" encoding="UTF-8" standalone="no"?> <!-- Created with Vectornator for iOS (http://vectornator.io/) --><!DOCTYPE svg PUBLIC "-//W3C//DTD SVG 1.1//EN" "http://www.w3.org/Graphics/SVG/1.1/DTD/svg11.dtd">
<svg style="fill-rule:evenodd;clip-rule:evenodd;stroke-linecap:round;stroke-linejoin:round;" xmlns:vectornator="http://vectornator.io" xmlns:xlink="http://www.w3.org/1999/xlink" xmlns="http://www.w3.org/2000/svg" xml:space="preserve" version="1.1" viewBox="0 0 122.88 90.82">
<metadata>
<vectornator:setting key="DynamicGuides" value="1"/>
<vectornator:setting key="Units" value="Points"/>
<vectornator:setting key="GridSpacing" value="36"/>
<vectornator:setting key="SnapToGuides" value="1"/>
<vectornator:setting key="RulersVisible" value="1"/>
</metadata>
<defs/>
<g id="Untitled" vectornator:layerName="Untitled">
<path d="M121.57+40.15C122.42+41.57+122.88+43.09+122.88+44.66C122.88+53+109.98+59.76+94.08+59.76C78.18+59.76+65.28+53+65.28+44.66C65.28+43.09+65.74+41.57+66.59+40.15C70.25+46.28+81.17+50.74+94.08+50.74C106.99+50.74+117.91+46.29+121.57+40.15L121.57+40.15ZM56.29+62.64C57.14+64.07+57.6+65.58+57.6+67.15C57.6+75.49+44.7+82.25+28.8+82.25C12.9+82.25+0+75.49+0+67.15C0+65.58+0.46+64.06+1.31+62.64C4.97+68.77+15.9+73.23+28.8+73.23C41.71+73.23+52.63+68.78+56.29+62.64L56.29+62.64ZM32.98+40.56L32.92+36.82C33.77+36.79+34.46+36.53+34.99+36.05C35.53+35.57+35.82+34.99+35.88+34.31C35.95+33.53+35.69+32.85+35.11+32.25C34.53+31.66+33.59+31.3+32.32+31.19C31.13+31.09+30.21+31.28+29.57+31.76C28.93+32.24+28.57+32.91+28.5+33.77C28.41+34.84+28.8+35.84+29.67+36.77L28.97+39.75L19.03+36.96L19.88+27.12L23.36+27.42L22.75+34.44L26+35.31C25.66+34.44+25.52+33.58+25.6+32.71C25.74+31.06+26.47+29.71+27.76+28.67C29.06+27.63+30.67+27.19+32.59+27.36C34.19+27.5+35.57+28.08+36.74+29.12C38.34+30.53+39.05+32.36+38.85+34.6C38.69+36.39+38.09+37.81+37.03+38.86C35.98+39.92+34.63+40.49+32.98+40.56L32.98+40.56ZM28.8+25.56C41.87+25.56+52.47+29.72+52.47+34.84C52.47+39.97+41.87+44.12+28.8+44.12C15.73+44.12+5.13+39.98+5.13+34.85C5.13+29.72+15.73+25.56+28.8+25.56L28.8+25.56L28.8+25.56ZM28.8+22.49C44.7+22.49+57.6+29.25+57.6+37.59C57.6+45.93+44.7+52.69+28.8+52.69C12.9+52.68+0+45.92+0+37.59C0+29.25+12.9+22.49+28.8+22.49L28.8+22.49ZM56.39+47.65C57.17+49.02+57.6+50.48+57.6+51.98C57.6+60.32+44.7+67.08+28.8+67.08C12.9+67.08+0+60.32+0+51.99C0+50.48+0.42+49.03+1.21+47.66C4.77+53.88+15.77+58.42+28.8+58.42C41.83+58.41+52.84+53.88+56.39+47.65L56.39+47.65L56.39+47.65ZM104.48+8.95L104.15+12.7L90.01+11.47C91.18+12.95+91.98+14.65+92.43+16.56L89.03+16.26C88.8+15.26+88.28+14.14+87.49+12.92C86.69+11.69+85.72+10.82+84.56+10.29L84.83+7.25L104.48+8.95L104.48+8.95L104.48+8.95ZM94.08+3.08C107.15+3.08+117.75+7.24+117.75+12.36C117.75+17.49+107.15+21.64+94.08+21.64C81.01+21.64+70.41+17.48+70.41+12.36C70.41+7.23+81.01+3.08+94.08+3.08L94.08+3.08ZM94.08+0C109.98+0+122.88+6.76+122.88+15.1C122.88+23.44+109.98+30.2+94.08+30.2C78.18+30.2+65.28+23.44+65.28+15.1C65.28+6.76+78.18+0+94.08+0L94.08+0ZM121.67+25.16C122.45+26.53+122.88+27.99+122.88+29.49C122.88+37.83+109.98+44.59+94.08+44.59C78.18+44.59+65.28+37.83+65.28+29.49C65.28+27.98+65.7+26.53+66.49+25.16C70.04+31.38+81.05+35.92+94.08+35.92C107.11+35.93+118.12+31.39+121.67+25.16L121.67+25.16L121.67+25.16ZM121.39+70.92C122.35+72.43+122.88+74.04+122.88+75.72C122.88+84.06+109.98+90.82+94.08+90.82C78.18+90.82+65.28+84.06+65.28+75.72C65.28+74.04+65.8+72.43+66.77+70.92C70.6+76.9+81.38+81.22+94.08+81.22C106.78+81.22+117.57+76.91+121.39+70.92L121.39+70.92ZM121.53+55.39C122.41+56.84+122.88+58.37+122.88+59.97C122.88+68.31+109.98+75.07+94.08+75.07C78.18+75.07+65.28+68.31+65.28+59.97C65.28+58.37+65.76+56.83+66.63+55.39C70.33+61.49+81.22+65.9+94.08+65.9C106.94+65.9+117.82+61.49+121.53+55.39L121.53+55.39L121.53+55.39Z" fill-rule="evenodd" fill="#faebd7" opacity="1"/>
</g>
</svg>
