<?xml version="1.0" encoding="UTF-8" standalone="no"?> <!-- Created with Vectornator for iOS (http://vectornator.io/) --><!DOCTYPE svg PUBLIC "-//W3C//DTD SVG 1.1//EN" "http://www.w3.org/Graphics/SVG/1.1/DTD/svg11.dtd">
<svg style="fill-rule:evenodd;clip-rule:evenodd;stroke-linecap:round;stroke-linejoin:round;" xmlns:vectornator="http://vectornator.io" xmlns:xlink="http://www.w3.org/1999/xlink" xmlns="http://www.w3.org/2000/svg" xml:space="preserve" version="1.1" viewBox="0 0 2387.3 948">
<metadata>
<vectornator:setting key="DynamicGuides" value="1"/>
<vectornator:setting key="Units" value="Points"/>
<vectornator:setting key="GridSpacing" value="36"/>
<vectornator:setting key="SnapToGuides" value="1"/>
<vectornator:setting key="RulersVisible" value="1"/>
</metadata>
<defs/>
<g id="Untitled" vectornator:layerName="Untitled">
<path d="M1129.1+463.2L1129.1+741L1040.9+741L1040.9+54.8L1274.7+54.8C1331.1+53.6+1385.6+75+1426.1+114.2C1467.1+151.1+1490.2+203.9+1489.3+259C1490.5+314.5+1467.4+367.7+1426.1+404.7C1385.2+443.7+1334.7+463.2+1274.7+463.1L1129.1+463.2L1129.1+463.2ZM1129.1+139.3L1129.1+378.9L1276.9+378.9C1309.7+379.9+1341.3+367+1364.1+343.4C1410.4+298.4+1411.5+224.3+1366.4+178C1365.6+177.2+1364.9+176.4+1364.1+175.7C1341.6+151.6+1309.8+138.4+1276.9+139.3L1129.1+139.3L1129.1+139.3ZM1692.5+256.2C1757.7+256.2+1809.1+273.6+1846.8+308.4C1884.5+343.2+1903.3+391+1903.3+451.6L1903.3+741L1819+741L1819+675.8L1815.2+675.8C1778.7+729.5+1730.1+756.3+1669.5+756.3C1617.8+756.3+1574.5+741+1539.7+710.3C1505.9+681.8+1486.7+639.6+1487.5+595.3C1487.5+546.7+1505.9+508.1+1542.6+479.4C1579.3+450.7+1628.3+436.3+1689.7+436.3C1742+436.3+1785.2+445.9+1819+465L1819+444.8C1819.2+414.6+1805.8+386+1782.6+366.8C1759.3+345.8+1728.9+334.3+1697.5+334.7C1648.3+334.7+1609.3+355.5+1580.6+397L1503+348.1C1545.6+286.8+1608.8+256.2+1692.5+256.2L1692.5+256.2ZM1578.4+597.3C1578.3+620.1+1589.2+641.5+1607.6+654.8C1627.1+670.1+1651.3+678.3+1676.1+677.8C1713.3+677.7+1749+662.9+1775.3+636.6C1804.5+609.1+1819.1+576.9+1819.1+539.8C1791.6+517.9+1753.3+506.9+1704.1+506.9C1668.3+506.9+1638.4+515.5+1614.5+532.8C1590.4+550.4+1578.4+571.7+1578.4+597.3L1578.4+597.3ZM2387.3+271.5L2093+948L2002+948L2111.2+711.3L1917.6+271.5L2013.4+271.5L2153.3+608.8L2155.2+608.8L2291.3+271.5L2387.3+271.5Z" opacity="1" fill="#faebd7"/>
<path d="M772.8+403.2C772.8+376.3+770.6+349.5+766+323L394.2+323L394.2+474.8L607.1+474.8C598.3+523.8+569.9+567.1+528.4+594.6L528.4+693.2L655.5+693.2C729.9+624.7+772.8+523.2+772.8+403.2L772.8+403.2Z" opacity="1" fill="#faebd7"/>
<path d="M394.2+788.5C500.6+788.5+590.2+753.6+655.5+693.3L528.4+594.7C493+618.7+447.5+632.4+394.2+632.4C291.4+632.4+204.1+563.1+172.9+469.7L42+469.7L42+571.3C108.9+704.5+245.2+788.5+394.2+788.5Z" opacity="1" fill="#faebd7"/>
<path d="M172.9+469.7C156.4+420.8+156.4+367.7+172.9+318.8L172.9+217.2L42+217.2C-14+328.6-14+459.9+42+571.3L172.9+469.7Z" opacity="1" fill="#faebd7"/>
<path d="M394.2+156.1C450.4+155.2+504.7+176.4+545.4+215.2L658+102.7C586.6+35.7+492.1-1.1+394.2+0C245.2+0+108.9+84.1+42+217.2L172.9+318.8C204.1+225.4+291.4+156.1+394.2+156.1Z" opacity="1" fill="#faebd7"/>
</g>
</svg>
