<?xml version="1.0" encoding="UTF-8" standalone="no"?> <!-- Created with Vectornator for iOS (http://vectornator.io/) --><!DOCTYPE svg PUBLIC "-//W3C//DTD SVG 1.1//EN" "http://www.w3.org/Graphics/SVG/1.1/DTD/svg11.dtd">
<svg style="fill-rule:evenodd;clip-rule:evenodd;stroke-linecap:round;stroke-linejoin:round;" xmlns:vectornator="http://vectornator.io" xmlns:xlink="http://www.w3.org/1999/xlink" xmlns="http://www.w3.org/2000/svg" xml:space="preserve" version="1.1" viewBox="0 0 313.581 186.091">
<metadata>
<vectornator:setting key="DynamicGuides" value="1"/>
<vectornator:setting key="Units" value="Pixels"/>
<vectornator:setting key="GridSpacing" value="36"/>
<vectornator:setting key="SnapToGuides" value="1"/>
<vectornator:setting key="RulersVisible" value="1"/>
</metadata>
<defs/>
<g id="Untitled" vectornator:layerName="Untitled">
<path d="M115.993+185.818C78.618+182.542+45.638+168.677+24.158+147.212C11.92+134.982+4.496+121.716+1.14+106.077C-0.387002+98.963-0.379003+87.157+1.158+79.983C5.816+58.239+19.867+39.218+41.993+24.709C92.455-8.382+169.757-8.216+219.743+25.092C226.383+29.516+230.67+33.028+236.676+38.959C244.255+46.444+249.584+53.879+255.207+64.814C255.415+65.219+256.446+65.73+257.498+65.948C261.043+66.684+265.768+69.444+269.578+73.001C272.529+75.757+274.818+78.763+280.453+87.284C286.135+95.875+311.856+135.593+313.42+138.191C314.028+139.201+312.826+140.826+311.47+140.826C310.508+140.826+309.824+140.185+308.405+137.951C307.4+136.37+300.84+126.188+293.826+115.326C269.008+76.886+267.658+75.102+260.746+71.645L257.11+69.826L246.437+69.826C235.778+69.826+235.763+69.827+235.504+70.951C234.087+77.1+233.828+78.606+234.136+78.892C234.333+79.075+240.39+82.524+247.595+86.557L260.697+93.89L259.878+95.608C259.427+96.553+258.91+97.326+258.728+97.326C258.546+97.326+247.521+91.222+234.228+83.76C220.935+76.298+209.282+69.98+208.333+69.718C204.552+68.674+198.744+72.863+198.744+76.634C198.744+80.454+199.878+81.568+223.233+100.694C237.806+112.628+246.141+119.797+247.414+121.491C249.73+124.573+252.071+129.114+254.231+134.714C258.028+144.559+264.203+150.052+274.33+152.592L277.665+153.428L277.384+155.252C277.229+156.255+277.015+157.178+276.907+157.301C276.479+157.793+269.763+155.65+265.876+153.783C259.799+150.863+255.626+146.703+251.522+139.479C251.492+139.426+249.111+140.242+246.23+141.292C241.114+143.158+240.88+143.312+236.047+148.028C215.449+168.127+185.91+180.97+150.243+185.336C144.462+186.044+122.151+186.357+115.993+185.818L115.993+185.818ZM151.493+179.629C167.858+177.47+180.547+174.219+193.83+168.781C207.772+163.073+220.918+154.871+230.117+146.14L233.742+142.7L224.617+138.341C214.868+133.683+213.908+132.911+212.659+128.747C211.871+126.117+212.763+123.324+215.252+120.623L217.192+118.518L212.963+115.306C209.615+112.763+208.565+111.65+207.921+109.964C206.879+107.236+207.255+104.285+208.947+101.907L210.233+100.099L196.862+97.746C189.508+96.453+182.653+95.147+181.629+94.844C179.624+94.252+177.584+91.972+177.056+89.735C176.772+88.535+183.325+56.54+184.789+51.976C185.444+49.933+188.245+47.464+190.355+47.069C192.565+46.655+231.976+53.583+233.938+54.73C237.044+56.545+238.026+59.463+237.041+63.951L236.629+65.826L238.81+65.823C240.009+65.822+242.849+65.676+245.119+65.499L249.247+65.177L247.2+61.377C241.001+49.868+229.809+38.291+215.991+29.093C209.544+24.801+195.778+18.021+187.491+15.053C175.708+10.835+161.447+7.675+147.741+6.246C140.225+5.463+120.538+5.474+113.241+6.266C95.752+8.163+79.866+12.122+65.981+18.041C33.836+31.747+12.222+54.451+6.689+80.327C5.243+87.09+5.13+98.928+6.453+105.077C9.379+118.673+15.766+130.442+26.165+141.397C47.345+163.711+79.696+177.418+118.493+180.518C123.687+180.933+146.208+180.327+151.493+179.629ZM144.409+155.278C142.408+154.699+140.38+152.318+139.954+150.045C139.676+148.565+140.015+147.538+142.136+143.435C150.707+126.855+154.432+111.597+154.432+93.077C154.432+75.179+151.134+61.253+142.941+44.562C141.182+40.979+139.743+37.652+139.743+37.171C139.743+35.395+141.229+32.82+142.838+31.81C145.045+30.425+148.743+30.684+150.513+32.346C151.193+32.985+152.961+35.887+154.441+38.793C160.303+50.304+164.32+62.933+166.303+76.078C167.53+84.213+167.774+99.631+166.794+107.078C164.985+120.816+161.359+133.074+155.553+145.083C152.044+152.342+149.841+155.328+147.997+155.328C147.628+155.328+147.026+155.42+146.66+155.533C146.292+155.644+145.28+155.53+144.409+155.278L144.409+155.278ZM120.552+142.797C117.483+141.904+115.27+138.139+116.157+135.318C116.372+134.635+117.817+131.489+119.367+128.327C125.932+114.939+128.663+100.587+127.325+86.496C126.225+74.918+124.15+67.616+118.923+56.932C115.416+49.764+115.253+48.653+117.292+45.767C119.231+43.023+124.07+42.578+126.612+44.91C128.374+46.526+133.854+57.97+135.969+64.451C142.969+85.899+141.901+108.923+132.93+129.993C128.335+140.786+125.109+144.123+120.552+142.797ZM95.95+130.14C94.054+129.285+92.422+127.28+91.978+125.259C91.707+124.028+92.173+122.666+94.423+118.11C102.686+101.375+102.775+85.256+94.695+68.91C91.147+61.731+91.069+60.302+94.07+57.471C95.551+56.074+96.18+55.827+98.26+55.827C101.749+55.827+103.558+57.58+106.676+63.984C111.471+73.834+113.434+82.379+113.418+93.327C113.401+104.58+111.566+112.305+106.443+122.692C103.509+128.639+102.059+130.209+99.122+130.612C98.226+130.735+96.799+130.522+95.95+130.14L95.95+130.14ZM72.993+118.35C71.491+117.728+69.776+115.684+69.266+113.907C68.697+111.921+69.163+110.345+71.418+106.637C74.318+101.868+74.993+99.309+74.993+93.076C74.993+86.844+74.318+84.284+71.418+79.515C70.435+77.898+69.448+75.961+69.224+75.21C68.29+72.067+70.909+68.215+74.427+67.555C77.409+66.995+79.457+68.326+82.199+72.606C90.138+84.998+90.137+101.552+82.195+113.839C79.394+118.174+76.27+119.706+72.993+118.35L72.993+118.35ZM244.032+137.6C246.688+136.651+248.984+135.752+249.133+135.603C249.282+135.454+248.77+133.756+247.994+131.83C246.402+127.875+246.66+127.977+241.008+129.059C234.905+130.227+231.362+129.186+224.682+124.267C222.861+122.926+220.982+121.828+220.508+121.828C220.033+121.828+218.992+122.527+218.194+123.381C216.482+125.214+216.224+128.085+217.618+129.783C218.83+131.259+235.605+139.241+237.597+139.289C238.48+139.309+241.375+138.55+244.032+137.6L244.032+137.6ZM241.392+124.761C243.879+124.261+244.152+124.09+243.725+123.293C243.248+122.401+220.046+103.145+218.034+101.969C216.373+101+215.025+101.225+213.648+102.701C209.618+107.022+210.088+107.927+220.527+115.931C233.116+125.584+234.46+126.154+241.392+124.761ZM210.243+95.606C210.243+95.485+207.611+93.218+204.395+90.57C196.448+84.027+194.743+81.585+194.743+76.746C194.743+72.706+197.438+68.803+201.777+66.559C203.931+65.445+207.771+65.093+209.944+65.81C211.481+66.317+218.41+70.066+228.018+75.587L230.042+76.75L231.71+68.839C233.418+60.737+233.449+58.613+231.868+58.12C231.387+57.97+222.126+56.287+211.287+54.38C192.041+50.994+189.941+50.792+189.045+52.242C188.568+53.013+181.246+86.946+181.245+88.389C181.244+89.111+181.611+90.008+182.061+90.381C182.51+90.754+188.754+92.111+195.936+93.397C209.812+95.882+210.243+95.949+210.243+95.606Z" opacity="1" fill="#ffffff"/>
</g>
</svg>
