<?xml version="1.0" encoding="UTF-8" standalone="no"?> <!-- Created with Vectornator for iOS (http://vectornator.io/) --><!DOCTYPE svg PUBLIC "-//W3C//DTD SVG 1.1//EN" "http://www.w3.org/Graphics/SVG/1.1/DTD/svg11.dtd">
<svg style="fill-rule:evenodd;clip-rule:evenodd;stroke-linecap:round;stroke-linejoin:round;" xmlns:vectornator="http://vectornator.io" xmlns:xlink="http://www.w3.org/1999/xlink" xmlns="http://www.w3.org/2000/svg" xml:space="preserve" version="1.1" viewBox="0 0 470 468">
<metadata>
<vectornator:setting key="DynamicGuides" value="1"/>
<vectornator:setting key="Units" value="Pixels"/>
<vectornator:setting key="GridSpacing" value="36"/>
<vectornator:setting key="SnapToGuides" value="1"/>
<vectornator:setting key="RulersVisible" value="1"/>
</metadata>
<defs/>
<g id="S8-/-S8+-icons" vectornator:layerName="S8-/-S8+-icons">
<g opacity="1">
<g opacity="1">
<path d="M20.7503+139.808C35.8973+66.782+82.5033+26.109+155.2+13.822C208.94+4.741+262.7+4.626+316.35+14.077C391.202+27.262+436.2+70.307+450.535+144.437C461.61+201.727+461.784+259.628+450.361+316.864C435.037+389.384+387.229+434.149+314.8+446.391C261.06+455.471+207.3+455.586+153.65+446.136C78.7983+432.95+33.6003+387.756+19.2663+313.627C7.6263+255.959+8.7463+197.692+20.7503+139.807L20.7503+139.808Z" opacity="1" fill="#000000"/>
<path d="M20.7503+139.808C35.8973+66.782+82.5033+26.109+155.2+13.822C208.94+4.741+262.7+4.626+316.35+14.077C391.202+27.262+436.2+70.307+450.535+144.437C461.61+201.727+461.784+259.628+450.361+316.864C435.037+389.384+387.229+434.149+314.8+446.391C261.06+455.471+207.3+455.586+153.65+446.136C78.7983+432.95+33.6003+387.756+19.2663+313.627C7.6263+255.959+8.7463+197.692+20.7503+139.807L20.7503+139.808Z" opacity="1" fill="#FAEBD7"/>
</g>
<path d="M243.113+175.01C271.958+175.01+295.342+198.394+295.342+227.239C295.342+229.572+294.876+277.354+294.876+277.354L275.462+277.354L275.462+228.69C275.462+227.712+275.411+226.745+275.325+225.79L275.325+225.752L275.322+225.752C273.838+209.522+260.197+196.807+243.579+196.807C225.972+196.807+211.698+211.082+211.698+228.69C211.698+246.297+226.028+258.061+243.636+258.061L250.262+258.061L250.219+277.113C247.799+277.153+245.644+277.079+243.113+277.026C214.274+276.416+190.883+256.083+190.883+227.239C190.883+198.394+214.268+175.009+243.113+175.009L243.113+175.01ZM141.815+178.147C167.715+180.9+185.434+200.253+185.434+227.237C185.434+256.082+165.182+276.416+136.344+277.025C133.812+277.078+128.518+277.152+126.098+277.112L126.054+258.06L134.927+258.06C151.322+258.06+164.752+244.765+164.618+228.369C164.48+211.537+153.492+203.164+146.821+199.627C144.099+198.184+141.055+197.46+137.975+197.46L103.428+197.46L103.428+305.624L84.1153+305.624L84.1153+201.03C84.1153+188.394+94.3603+178.15+106.996+178.15L141.816+178.15L141.815+178.147ZM383.269+181.287L403.115+181.287L341.345+308.937L321.5+308.937L383.27+181.287L383.269+181.287ZM342.006+231.225L332.088+251.725L297.956+181.285L317.8+181.285C317.8+181.285+342.006+231.225+342.006+231.225Z" opacity="1" fill="#000000"/>
</g>
</g>
</svg>
